<?xml version="1.0" encoding="UTF-8" standalone="no"?>
<!-- Created with Inkscape (http://www.inkscape.org/) -->

<svg
   xmlns:dc="http://purl.org/dc/elements/1.1/"
   xmlns:cc="http://creativecommons.org/ns#"
   xmlns:rdf="http://www.w3.org/1999/02/22-rdf-syntax-ns#"
   xmlns:svg="http://www.w3.org/2000/svg"
   xmlns="http://www.w3.org/2000/svg"
   xmlns:sodipodi="http://sodipodi.sourceforge.net/DTD/sodipodi-0.dtd"
   xmlns:inkscape="http://www.inkscape.org/namespaces/inkscape"
   width="15.814485"
   height="15.427955"
   viewBox="0 0 4.184249 4.0819798"
   version="1.1"
   id="svg4870"
   inkscape:version="0.92.4 5da689c313, 2019-01-14"
   sodipodi:docname="github.svg">
  <defs
     id="defs4864" />
  <sodipodi:namedview
     id="base"
     pagecolor="#ffffff"
     bordercolor="#666666"
     borderopacity="1.0"
     inkscape:pageopacity="0.0"
     inkscape:pageshadow="2"
     inkscape:zoom="22.4"
     inkscape:cx="10.326324"
     inkscape:cy="4.0585821"
     inkscape:document-units="px"
     inkscape:current-layer="layer1"
     showgrid="false"
     units="px"
     fit-margin-top="0"
     fit-margin-left="0"
     fit-margin-right="0"
     fit-margin-bottom="0"
     inkscape:window-width="1920"
     inkscape:window-height="981"
     inkscape:window-x="1080"
     inkscape:window-y="288"
     inkscape:window-maximized="1" />
  <metadata
     id="metadata4867">
    <rdf:RDF>
      <cc:Work
         rdf:about="">
        <dc:format>image/svg+xml</dc:format>
        <dc:type
           rdf:resource="http://purl.org/dc/dcmitype/StillImage" />
        <dc:title></dc:title>
      </cc:Work>
    </rdf:RDF>
  </metadata>
  <g
     inkscape:label="Layer 1"
     inkscape:groupmode="layer"
     id="layer1"
     transform="translate(27.038596,-88.58401)">
    <path
       id="path7414"
       d="m -23.13491,89.626006 c -0.187088,-0.320553 -0.44086,-0.574334 -0.761384,-0.761403 -0.320571,-0.187078 -0.670539,-0.280593 -1.050153,-0.280593 -0.379566,0 -0.729649,0.09354 -1.050154,0.280593 -0.320552,0.187059 -0.574315,0.44085 -0.761402,0.761403 -0.187059,0.320543 -0.280593,0.670578 -0.280593,1.050096 0,0.455887 0.133007,0.865833 0.399087,1.229942 0.266052,0.364137 0.609752,0.616106 1.031071,0.755935 0.04904,0.0091 0.08535,0.0027 0.108953,-0.01905 0.02361,-0.02177 0.03541,-0.04904 0.03541,-0.08169 0,-0.0054 -4.68e-4,-0.05446 -0.0014,-0.147099 -9.36e-4,-0.09264 -0.0014,-0.173453 -0.0014,-0.242409 l -0.06266,0.01084 c -0.03996,0.0073 -0.09035,0.01042 -0.151199,0.0095 -0.06082,-8.47e-4 -0.123952,-0.0072 -0.18932,-0.01907 -0.0654,-0.01175 -0.126225,-0.03899 -0.182529,-0.08166 -0.05627,-0.04268 -0.09622,-0.09854 -0.119839,-0.167509 l -0.02724,-0.06269 c -0.01816,-0.04173 -0.04674,-0.0881 -0.0858,-0.138913 -0.03905,-0.05087 -0.07854,-0.08535 -0.118495,-0.103505 l -0.01907,-0.01365 c -0.01271,-0.0091 -0.0245,-0.02002 -0.03541,-0.03272 -0.0109,-0.0127 -0.01905,-0.02541 -0.0245,-0.03814 -0.0055,-0.01274 -9.37e-4,-0.02318 0.01361,-0.03138 0.01455,-0.0082 0.04085,-0.01217 0.079,-0.01217 l 0.05446,0.0081 c 0.03632,0.0073 0.08125,0.02903 0.134848,0.06537 0.05357,0.03631 0.0976,0.08352 0.132111,0.141613 0.04179,0.07448 0.09214,0.131233 0.151192,0.170285 0.059,0.03905 0.118495,0.05855 0.178415,0.05855 0.05992,0 0.111672,-0.0045 0.155276,-0.01358 0.04356,-0.0091 0.08442,-0.02274 0.122579,-0.04089 0.01634,-0.121731 0.06085,-0.215246 0.133464,-0.280614 -0.103505,-0.01088 -0.196562,-0.02726 -0.279219,-0.04904 -0.08261,-0.02181 -0.167976,-0.05721 -0.256043,-0.106291 -0.08811,-0.04901 -0.161211,-0.109879 -0.219308,-0.182489 -0.05811,-0.07265 -0.105795,-0.168024 -0.142997,-0.286041 -0.03722,-0.118065 -0.05584,-0.254259 -0.05584,-0.408619 0,-0.219786 0.07175,-0.406816 0.215225,-0.561196 -0.06721,-0.165238 -0.06086,-0.350474 0.01905,-0.55569 0.05267,-0.01636 0.130774,-0.0041 0.234279,0.03676 0.103524,0.04086 0.179321,0.07587 0.227467,0.104898 0.04815,0.02902 0.08672,0.0536 0.115784,0.07355 0.16893,-0.0472 0.343261,-0.07081 0.52304,-0.07081 0.179779,0 0.354148,0.02361 0.523087,0.07081 l 0.103515,-0.06535 c 0.07079,-0.0436 0.154379,-0.08356 0.250576,-0.119888 0.09625,-0.0363 0.169855,-0.0463 0.22073,-0.02994 0.08169,0.205226 0.08897,0.390453 0.02174,0.555691 0.143464,0.154379 0.215244,0.341457 0.215244,0.561195 0,0.154361 -0.01868,0.290984 -0.05585,0.409955 -0.03721,0.118991 -0.08531,0.214271 -0.144313,0.286042 -0.05907,0.07176 -0.132635,0.132148 -0.220702,0.181152 -0.08809,0.04904 -0.173481,0.08444 -0.256091,0.106253 -0.08265,0.02181 -0.175704,0.0382 -0.279209,0.0491 0.0944,0.08169 0.141613,0.210645 0.141613,0.386798 v 0.574745 c 0,0.03265 0.01135,0.05991 0.03408,0.08169 0.0227,0.02175 0.05855,0.02815 0.107589,0.01903 0.421377,-0.13981 0.765077,-0.391788 1.03112,-0.755926 0.266013,-0.364108 0.399068,-0.774054 0.399068,-1.229941 -9.8e-5,-0.37947 -0.09368,-0.729476 -0.280649,-1.050019 z"
       inkscape:connector-curvature="0"
       style="fill:#d0d0d0;fill-opacity:1;stroke-width:0.00954139" />
  </g>
</svg>
